# xmcd CD database file
#
# Track frame offsets:
#	150
#	19809
#	40123
#	61228
#	82619
#	104111
#	124414
#	151073
#	170911
#	188379
#	202805
#	217454
#	235201
#	248027
#	268293
#	294511
#	311384
#	326196
#
# Disc length: 4638 seconds
#
# Revision: 0
# Processed by: cddbd v1.5.2PL0 Copyright (c) Steve Scherf et al.
# Submitted via: CDex 1.70beta2
#
DISCID=04121c12
DTITLE=Tex Perkins - The Best Of Tex Perkins - Songs From My Black Cattledog
DYEAR=2009
DGENRE=Country
TTITLE0=What I Done To Her 
TTITLE1=I Know You Know I Know
TTITLE2=Whenever It Snows
TTITLE3=She Speaks A Different Language 
TTITLE4=Half Of Nothing
TTITLE5=Changelings
TTITLE6=Ice In The Sun
TTITLE7=Lucid
TTITLE8=I Don't Worry Anymore
TTITLE9=A Place To Hide
TTITLE10=It Won't Last
TTITLE11=Anybody But You
TTITLE12=Please Break Me Gently
TTITLE13=Paycheques
TTITLE14=Fake That Emotion
TTITLE15=Real Love
TTITLE16=Still The Same
TTITLE17=The Singer of the Song
EXTD=YEAR: 2009
EXTT0=
EXTT1=
EXTT2=
EXTT3=
EXTT4=
EXTT5=
EXTT6=
EXTT7=
EXTT8=
EXTT9=
EXTT10=
EXTT11=
EXTT12=
EXTT13=
EXTT14=
EXTT15=
EXTT16=
EXTT17=
PLAYORDER=
